<svg xmlns="http://www.w3.org/2000/svg" width="512" height="512" viewBox="0 0 512 512" version="1.1">
	<path d="M 245 41.047 C 217.391 44.396, 183.899 56.265, 161.902 70.494 C 128.169 92.317, 102.990 127.431, 96.405 161.838 C 94.757 170.445, 94.587 185.863, 96.041 194.824 C 98.350 209.050, 105.994 221.526, 116.969 228.979 C 120.286 231.231, 123 233.524, 123 234.074 C 123 234.624, 117.150 246.291, 110 260 C 102.850 273.709, 96.100 287.209, 95 290 C 90.146 302.315, 93.824 312.388, 105.160 317.829 C 108.647 319.503, 113.882 321.171, 116.792 321.536 C 123.689 322.400, 125.590 324.923, 124.508 331.770 C 122.861 342.184, 123.163 343.422, 128.797 349.378 C 133.796 354.664, 134 355.101, 134 360.490 C 134 367.415, 135.584 370.599, 141.400 375.364 C 147.561 380.413, 148.431 383.870, 146.436 395.372 C 144.162 408.473, 146.530 415.844, 154.672 421.007 C 165.128 427.638, 176.411 427.132, 201.021 418.928 C 227.960 409.948, 230.429 411.693, 232.108 440.902 C 232.632 450.031, 233.497 458.533, 234.030 459.796 C 234.924 461.914, 235.520 462.069, 241.749 461.796 L 248.500 461.500 249.064 432.500 C 249.449 412.731, 250.026 402.545, 250.879 400.500 C 251.568 398.850, 254.745 393.450, 257.940 388.500 C 271.678 367.216, 275.094 356.731, 276.912 330.263 C 277.505 321.633, 278.247 317.271, 279.431 315.465 C 281.537 312.251, 286.764 309.009, 289.849 309.004 C 293.414 308.998, 297.602 314.264, 300.008 321.779 C 301.192 325.475, 305.357 335.184, 309.265 343.353 C 315.945 357.318, 316.395 358.695, 316.800 366.409 C 317.633 382.291, 311.720 410.326, 301.071 440.972 C 297.732 450.582, 295 459.244, 295 460.222 C 295 461.891, 297.061 462, 328.500 462 C 367.005 462, 364.198 462.932, 359.029 451.862 C 357.395 448.363, 354.721 439.875, 353.088 433 C 346.964 407.227, 346.414 389.334, 351.409 378.413 C 354.948 370.674, 357.522 368.073, 369.417 360.213 C 395.499 342.977, 417.326 320.073, 431.723 294.832 C 440.465 279.506, 449.286 254.626, 452.578 236.013 C 459.690 195.792, 449.798 150.094, 426.280 114.528 C 417.798 101.701, 397.262 80.963, 384.500 72.336 C 362.618 57.545, 336.381 47.288, 308 42.431 C 296.837 40.520, 256.625 39.637, 245 41.047 M 265.836 67.919 C 254.705 71.479, 250 75.762, 250 82.338 C 250 85.529, 249.352 86.824, 246.405 89.523 C 239.531 95.820, 236.734 94.381, 241.589 87.045 C 244.515 82.624, 244.271 80.543, 240.402 76.908 C 238.125 74.769, 236.925 74.500, 229.648 74.500 C 222.450 74.500, 220.668 74.889, 214.940 77.709 C 208.424 80.917, 201.763 86.394, 198.921 90.882 C 197.414 93.261, 197.408 93.262, 193.956 91.436 C 186.282 87.377, 173.781 90.245, 160.534 99.105 C 129.918 119.583, 123.817 155.618, 146.996 179.069 C 156.066 188.245, 173.202 196.162, 187.254 197.669 C 191.858 198.162, 192.789 198.549, 191.916 199.602 C 190.472 201.341, 191.613 201.557, 212.500 203.506 C 229.940 205.133, 242.541 207.068, 247.055 208.814 C 248.461 209.358, 253.549 212.808, 258.363 216.481 C 263.177 220.154, 270.127 224.586, 273.808 226.330 L 280.500 229.500 328 229.500 C 370.392 229.500, 376.199 229.309, 382 227.724 C 395.596 224.010, 407.883 215.664, 414.561 205.606 C 418.898 199.074, 424.717 183.046, 425.976 174.166 C 428.032 159.659, 423.130 144.655, 412.628 133.312 C 408.649 129.013, 406.499 125.675, 405.462 122.185 C 403.308 114.931, 398.358 108.163, 391.324 102.858 C 381.827 95.693, 375.521 93.587, 363.249 93.479 L 352.998 93.389 350.174 88.944 C 346.313 82.867, 340.823 78.280, 333.065 74.649 C 324.336 70.565, 311.630 69.746, 305.632 72.882 L 301.764 74.905 298.132 71.992 C 296.134 70.390, 292.531 68.386, 290.124 67.540 C 284.291 65.487, 272.883 65.665, 265.836 67.919 M 273.060 76.202 C 263.553 77.664, 257.936 82.626, 259.361 88.304 C 260.449 92.638, 263.767 92.674, 271.846 88.442 C 278.677 84.864, 279.028 84.788, 281.452 86.377 C 285.794 89.222, 285.871 93.663, 281.819 107.718 C 281.151 110.039, 280.925 112.259, 281.318 112.652 C 282.589 113.923, 287.416 109.477, 290.750 103.963 C 293.606 99.239, 293.998 97.736, 293.986 91.544 C 293.968 82.236, 293.366 80.379, 289.636 78.137 C 285.711 75.778, 280.085 75.121, 273.060 76.202 M 309.209 81.750 C 307.682 83.077, 307.079 85.134, 306.712 90.262 C 306.446 93.980, 306.554 97.224, 306.952 97.470 C 307.350 97.716, 309.395 96.156, 311.497 94.003 C 313.599 91.850, 316.575 89.813, 318.110 89.476 C 321.504 88.730, 328.215 91.519, 334.983 96.488 C 337.615 98.419, 340.045 100, 340.384 100 C 340.723 100, 341 97.905, 341 95.345 C 341 91.252, 340.539 90.252, 337.178 87.055 C 330.460 80.664, 314.040 77.550, 309.209 81.750 M 220.275 85.654 C 207.948 90.019, 193.377 111.628, 186.439 135.832 C 183.272 146.880, 183.921 148.823, 189.384 144.656 C 194.035 141.108, 195.584 138.762, 203.478 123.299 C 210.634 109.280, 213.767 105.332, 223.750 97.749 C 229.196 93.613, 230 92.577, 230 89.701 C 230 83.952, 227.739 83.011, 220.275 85.654 M 178.366 100.427 C 167.168 103.931, 152.301 116.277, 146.704 126.722 C 142.673 134.245, 140.901 143.692, 142.111 151.208 C 143.338 158.825, 145.992 164.045, 151.378 169.430 C 158.026 176.078, 175 183.728, 175 180.077 C 175 178.862, 171.109 174.133, 162.843 165.303 C 159.138 161.344, 155.359 156.661, 154.446 154.896 C 152.145 150.446, 152.851 140.998, 155.971 134.500 C 159.312 127.543, 169.952 117.321, 178.856 112.517 C 182.901 110.333, 187.020 107.519, 188.009 106.262 C 190.200 103.476, 189.573 100.388, 186.658 99.606 C 183.821 98.845, 183.237 98.903, 178.366 100.427 M 246 104.591 C 229.761 108.902, 212.250 122.923, 207.468 135.445 C 205.237 141.286, 205.851 148.977, 209.063 155.423 C 212.286 161.892, 234.658 187.845, 241.068 192.550 C 247.193 197.046, 255 198.604, 255 195.330 C 255 194.268, 252.852 190.722, 250.228 187.450 C 247.603 184.177, 242.316 177.462, 238.478 172.527 C 234.640 167.592, 228.979 160.842, 225.899 157.527 C 222.818 154.212, 219.781 150.517, 219.149 149.316 C 215.770 142.891, 220.015 134.183, 230.326 126.388 C 242.528 117.163, 254.466 113.467, 258.227 117.750 C 262.654 122.791, 261.099 126.931, 252.745 132.343 C 244.515 137.675, 241.792 141.105, 241.242 146.837 C 240.422 155.367, 242.835 159.788, 252.503 167.470 C 255.251 169.653, 261.348 175.094, 266.050 179.561 C 275.951 188.964, 281.823 191.896, 287.782 190.411 C 290.102 189.832, 291.972 188.539, 292.908 186.865 C 294.225 184.509, 294.203 183.959, 292.698 181.662 C 291.573 179.944, 289.770 178.894, 287.258 178.491 C 280.233 177.365, 277.359 175.367, 272.401 168.162 C 267.333 160.798, 264.677 158.686, 259 157.500 C 254.183 156.494, 253 155.298, 253 151.434 C 253 148.751, 253.787 147.478, 257.098 144.806 C 266.467 137.248, 268.209 135.511, 270.059 131.885 C 273.836 124.480, 271.980 112.907, 266.173 107.655 C 263.705 105.423, 257.428 103.080, 254 103.110 C 252.625 103.122, 249.025 103.789, 246 104.591 M 359.465 103.890 C 356.238 105.296, 354.706 107.653, 355.776 109.565 C 356.849 111.482, 375.046 127, 376.221 127 C 378.245 127, 376.578 123.463, 372.500 119.103 C 370.025 116.457, 368 114.002, 368 113.646 C 368 112.415, 373.214 113.008, 376.626 114.627 C 381.226 116.809, 383.715 120.199, 385.645 126.908 C 387.973 135.001, 390.320 139.162, 396.395 145.971 C 402.968 153.338, 405.719 158.959, 406.928 167.497 C 408.606 179.346, 405.671 192.557, 399.102 202.721 C 394.243 210.238, 388.365 215.236, 379 219.810 C 373.297 222.595, 372.040 223.553, 373.753 223.806 C 383.797 225.293, 404.659 210.515, 411.440 197.110 C 422.516 175.215, 420.405 153.276, 405.745 137.927 C 402.296 134.316, 399.957 130.797, 399.100 127.927 C 395.872 117.125, 389.160 109.723, 379.147 105.924 C 372.932 103.567, 362.647 102.503, 359.465 103.890 M 304.205 108.894 C 293.985 112.424, 286.636 120.804, 282.861 133.231 C 279.015 145.894, 281.713 157.358, 290.230 164.550 C 298.961 171.921, 310.857 174.234, 315.608 169.483 C 317.446 167.645, 317.945 166.365, 317.458 164.733 C 316.109 160.216, 313.579 158.791, 305.500 158 C 295.374 157.009, 293.461 155.276, 293.596 147.220 C 293.777 136.462, 299.726 124.910, 306.970 121.250 C 315.527 116.927, 325.953 118.770, 343.172 127.650 C 359.235 135.933, 369.929 148.549, 371.630 161.224 C 372.532 167.939, 370.755 171.412, 364.103 175.935 C 356.830 180.880, 349.827 188.435, 346.584 194.834 C 341.153 205.552, 343.775 205.526, 360 194.703 C 380.581 180.974, 385.511 173.110, 383.064 157.916 C 380.277 140.611, 365.980 125.040, 342.706 113.959 C 327.861 106.891, 314.930 105.190, 304.205 108.894 M 172.675 126.975 C 168.919 131.438, 167.524 136.579, 167.511 146 C 167.501 153.505, 167.875 155.292, 170.707 161.270 C 174.269 168.790, 181.209 178.308, 186.222 182.547 C 193.592 188.780, 209.491 193.305, 214.922 190.715 C 218.425 189.044, 218.794 185.034, 215.767 181.515 C 213.712 179.127, 212.388 178.687, 205.014 177.944 C 196.221 177.057, 193.379 175.727, 189.675 170.766 C 185.536 165.223, 190.950 162.991, 197.595 167.500 C 199.621 168.875, 201.666 170, 202.140 170 C 204.516 170, 201.529 163.784, 197.156 159.626 C 194.260 156.874, 193.859 156.782, 187.640 157.448 C 181.952 158.057, 181.030 157.918, 180.201 156.322 C 178.387 152.827, 177.921 145.179, 178.996 136.532 C 179.591 131.742, 179.805 126.962, 179.472 125.911 C 178.581 123.104, 175.530 123.581, 172.675 126.975 M 310.635 134.073 C 306.536 137.297, 307.238 142.037, 312.193 144.600 C 313.815 145.439, 318.987 146.796, 323.685 147.616 C 334.525 149.508, 339.363 151.455, 342.504 155.187 C 346.645 160.109, 345.685 164.469, 340.130 165.965 C 337.218 166.749, 333.391 170.258, 321.483 183.061 C 290.105 216.798, 284.135 223.511, 285.186 223.878 C 285.782 224.086, 292.271 221.266, 299.606 217.612 C 314.468 210.206, 313.950 210.642, 340.509 183.239 L 357.239 165.978 356.805 159.984 C 355.967 148.394, 348.278 141.714, 328.585 135.464 C 315.857 131.425, 314.168 131.294, 310.635 134.073 M 391.240 156.271 C 390.707 156.947, 389.977 161.775, 389.619 167 C 387.592 196.566, 379.834 205.014, 352 207.967 C 343.625 208.855, 341.296 209.576, 332.331 214.054 C 326.739 216.848, 321.920 219.766, 321.624 220.538 C 321.327 221.310, 321.773 222.630, 322.614 223.471 C 325.043 225.900, 333.347 225.344, 343.456 222.076 C 348.430 220.469, 356.325 218.745, 361 218.247 C 372.991 216.970, 380.442 213.420, 387.926 205.420 C 394.509 198.382, 397.451 191.928, 398.975 181.174 C 399.936 174.386, 399.123 164.920, 397.140 159.811 C 395.833 156.444, 392.623 154.518, 391.240 156.271 M 113.279 187.485 C 109.010 190.538, 108.410 199.272, 112.006 206.024 C 116.065 213.644, 122.998 219, 128.803 219 C 132.840 219, 134 216.807, 134 209.180 C 134 195.783, 120.881 182.047, 113.279 187.485 M 177.250 189.009 C 173.761 190.446, 174.550 191, 180.083 191 C 183.702 191, 185.048 190.640, 184.756 189.750 C 184.242 188.183, 180.220 187.786, 177.250 189.009 M 260.921 206.845 C 266.090 216.977, 279.214 221.557, 283.396 214.687 C 284.291 213.218, 284.067 212.519, 282.210 210.995 C 279.259 208.572, 264.833 203, 261.512 203 L 258.959 203 260.921 206.845 M 151.001 210.123 C 144.786 212.601, 141.325 218.198, 138.118 230.957 C 136.948 235.609, 134.821 241.184, 133.389 243.346 C 131.958 245.509, 127.168 254.078, 122.743 262.389 C 105.088 295.554, 105.750 294.088, 106.288 298.863 C 107.206 307.006, 113.560 310.841, 126.327 310.956 C 130.267 310.992, 131.677 311.523, 134.003 313.850 C 137.518 317.364, 138.698 322.942, 137.151 328.726 C 136.518 331.092, 136 334.351, 136 335.967 C 136 338.511, 136.504 339.046, 139.750 339.947 C 141.813 340.520, 144.325 340.991, 145.333 340.994 C 146.342 340.997, 150.842 341.942, 155.333 343.094 C 163.181 345.107, 167.909 345.190, 175.161 343.442 C 177.260 342.936, 178.071 343.265, 178.997 344.993 C 180.738 348.248, 179.455 351.039, 174.169 355.500 C 167.139 361.432, 159.426 370.805, 159.935 372.798 C 160.174 373.734, 160.285 380.350, 160.182 387.500 C 159.969 402.173, 161.043 405.420, 167.155 408.580 C 176.819 413.578, 209.381 404.232, 229.500 390.687 C 243.285 381.405, 253.302 367.359, 258.200 350.443 C 260.250 343.363, 260.495 340.436, 260.456 323.500 C 260.419 307.414, 260.078 303.164, 258.235 295.791 C 255.496 284.840, 250.849 274.499, 246.701 270.125 C 236.150 258.999, 201.366 238.069, 187.540 234.527 C 179.124 232.371, 171.527 232.567, 166.349 235.073 C 160.732 237.792, 153.154 246.191, 148.906 254.407 C 147.033 258.029, 145.195 260.994, 144.822 260.996 C 143.500 261.004, 140.057 250.009, 139.412 243.722 C 138.286 232.729, 142.071 224.034, 149.684 220.122 C 152.987 218.426, 159.798 218.769, 168.068 221.050 C 180.535 224.488, 197.688 227.762, 214.510 229.916 C 223.316 231.043, 232.766 232.651, 235.510 233.488 C 244.439 236.213, 253.625 244.679, 260.639 256.647 C 263.031 260.729, 263.119 261.334, 262.004 265.981 C 260.961 270.333, 261.042 271.413, 262.656 274.661 C 265.477 280.337, 269.076 282.469, 275.801 282.451 C 280.199 282.440, 282.719 281.768, 286.842 279.509 C 294.561 275.279, 296.295 272.704, 295.766 266.253 C 295.243 259.867, 295.911 259.128, 305.500 255.492 C 315.334 251.763, 316.457 251.598, 319.312 253.469 C 320.705 254.382, 324.242 255.374, 327.173 255.674 C 337.421 256.724, 346 252.368, 346 246.113 C 346 240.554, 338.462 241.140, 337.816 246.750 C 337.539 249.160, 337.017 249.539, 333.595 249.820 C 327.412 250.326, 325.246 249.395, 324.479 245.904 C 323.689 242.308, 324.589 242.247, 308.500 246.981 C 291.318 252.035, 288.347 254.271, 287.323 262.919 C 286.872 266.732, 286.121 268.530, 284.550 269.559 C 281.289 271.696, 276.791 272.203, 274 270.749 C 271.796 269.600, 271.423 268.589, 270.851 262.201 C 269.508 247.219, 259.117 232.225, 245.738 225.965 C 239.128 222.871, 225.514 220.194, 195.125 216.010 C 186.669 214.846, 174.345 212.792, 167.738 211.447 C 154.361 208.722, 154.489 208.732, 151.001 210.123 M 124.639 292.939 C 118.568 295.377, 115.945 297.672, 116.744 299.844 C 117.767 302.623, 119.139 302.969, 129.194 302.985 C 137.975 302.999, 139.152 303.226, 141.680 305.401 C 143.949 307.353, 144.451 308.577, 144.363 311.941 C 144.261 315.828, 144.361 315.983, 146.011 314.490 C 146.977 313.615, 148.335 310.875, 149.028 308.401 C 150.715 302.375, 149.124 296.937, 144.767 293.834 C 140.358 290.695, 131.237 290.289, 124.639 292.939" stroke="none" fill="white" fill-rule="evenodd"/>
</svg>