<?xml version="1.0" encoding="UTF-8"?>
<svg xmlns="http://www.w3.org/2000/svg" xmlns:xlink="http://www.w3.org/1999/xlink" width="25px" height="25px" viewBox="0 0 25 25" version="1.1">
<g id="surface1">
<path style=" stroke:none;fill-rule:evenodd;fill:rgb(0%,0%,0%);fill-opacity:1;" d="M 11.960938 2.003906 C 10.613281 2.167969 8.980469 2.746094 7.90625 3.441406 C 6.257812 4.507812 5.027344 6.222656 4.707031 7.902344 C 4.625 8.324219 4.617188 9.074219 4.691406 9.511719 C 4.800781 10.207031 5.175781 10.816406 5.710938 11.179688 C 5.875 11.289062 6.007812 11.402344 6.007812 11.429688 C 6.007812 11.457031 5.71875 12.027344 5.371094 12.695312 C 5.023438 13.363281 4.691406 14.023438 4.640625 14.160156 C 4.402344 14.761719 4.582031 15.253906 5.132812 15.519531 C 5.304688 15.601562 5.5625 15.683594 5.703125 15.699219 C 6.039062 15.742188 6.132812 15.867188 6.078125 16.199219 C 6 16.707031 6.015625 16.769531 6.289062 17.058594 C 6.53125 17.316406 6.542969 17.339844 6.542969 17.601562 C 6.542969 17.941406 6.621094 18.09375 6.90625 18.328125 C 7.207031 18.574219 7.246094 18.742188 7.148438 19.304688 C 7.039062 19.945312 7.15625 20.304688 7.550781 20.558594 C 8.0625 20.878906 8.613281 20.855469 9.816406 20.457031 C 11.132812 20.015625 11.25 20.101562 11.332031 21.527344 C 11.359375 21.972656 11.402344 22.390625 11.425781 22.449219 C 11.472656 22.554688 11.5 22.5625 11.804688 22.546875 L 12.132812 22.535156 L 12.160156 21.117188 C 12.179688 20.152344 12.207031 19.65625 12.25 19.554688 C 12.285156 19.476562 12.4375 19.210938 12.59375 18.96875 C 13.265625 17.929688 13.433594 17.417969 13.519531 16.125 C 13.550781 15.703125 13.585938 15.492188 13.644531 15.402344 C 13.746094 15.246094 14.003906 15.089844 14.152344 15.089844 C 14.328125 15.085938 14.53125 15.34375 14.648438 15.710938 C 14.707031 15.890625 14.910156 16.367188 15.101562 16.765625 C 15.425781 17.445312 15.449219 17.515625 15.46875 17.890625 C 15.507812 18.667969 15.21875 20.035156 14.699219 21.53125 C 14.539062 22 14.40625 22.425781 14.40625 22.472656 C 14.40625 22.554688 14.503906 22.558594 16.039062 22.558594 C 17.921875 22.558594 17.78125 22.605469 17.53125 22.0625 C 17.449219 21.894531 17.320312 21.476562 17.242188 21.140625 C 16.941406 19.882812 16.914062 19.011719 17.160156 18.476562 C 17.332031 18.097656 17.457031 17.972656 18.039062 17.589844 C 19.3125 16.746094 20.378906 15.628906 21.082031 14.394531 C 21.507812 13.648438 21.9375 12.433594 22.097656 11.523438 C 22.445312 9.558594 21.960938 7.328125 20.8125 5.59375 C 20.398438 4.964844 19.398438 3.953125 18.773438 3.53125 C 17.707031 2.808594 16.425781 2.308594 15.039062 2.070312 C 14.492188 1.980469 12.53125 1.933594 11.960938 2.003906 M 12.980469 3.316406 C 12.4375 3.488281 12.207031 3.699219 12.207031 4.019531 C 12.207031 4.175781 12.175781 4.238281 12.03125 4.371094 C 11.695312 4.679688 11.558594 4.609375 11.796875 4.25 C 11.9375 4.035156 11.925781 3.933594 11.738281 3.753906 C 11.628906 3.652344 11.570312 3.636719 11.214844 3.636719 C 10.863281 3.636719 10.773438 3.65625 10.496094 3.792969 C 10.175781 3.949219 9.851562 4.21875 9.714844 4.4375 C 9.640625 4.554688 9.640625 4.554688 9.46875 4.464844 C 9.097656 4.265625 8.484375 4.40625 7.839844 4.839844 C 6.34375 5.839844 6.046875 7.597656 7.175781 8.742188 C 7.621094 9.191406 8.457031 9.578125 9.144531 9.652344 C 9.367188 9.675781 9.414062 9.695312 9.371094 9.746094 C 9.300781 9.832031 9.355469 9.839844 10.375 9.9375 C 11.226562 10.015625 11.84375 10.109375 12.0625 10.195312 C 12.132812 10.222656 12.378906 10.390625 12.617188 10.570312 C 12.851562 10.75 13.191406 10.964844 13.371094 11.050781 L 13.695312 11.207031 L 16.015625 11.207031 C 18.085938 11.207031 18.367188 11.195312 18.652344 11.121094 C 19.316406 10.9375 19.917969 10.53125 20.242188 10.039062 C 20.453125 9.71875 20.738281 8.9375 20.800781 8.503906 C 20.898438 7.796875 20.660156 7.0625 20.148438 6.507812 C 19.953125 6.300781 19.847656 6.136719 19.796875 5.964844 C 19.691406 5.613281 19.449219 5.28125 19.109375 5.023438 C 18.644531 4.671875 18.335938 4.570312 17.738281 4.5625 L 17.234375 4.558594 L 17.097656 4.34375 C 16.910156 4.046875 16.640625 3.820312 16.261719 3.644531 C 15.835938 3.445312 15.214844 3.40625 14.921875 3.558594 L 14.734375 3.65625 L 14.558594 3.515625 C 14.460938 3.4375 14.285156 3.339844 14.167969 3.296875 C 13.882812 3.199219 13.324219 3.207031 12.980469 3.316406 M 13.332031 3.722656 C 12.867188 3.792969 12.59375 4.035156 12.664062 4.3125 C 12.71875 4.523438 12.878906 4.523438 13.273438 4.320312 C 13.605469 4.144531 13.625 4.140625 13.742188 4.21875 C 13.953125 4.355469 13.957031 4.574219 13.761719 5.257812 C 13.726562 5.371094 13.71875 5.480469 13.734375 5.5 C 13.796875 5.5625 14.035156 5.34375 14.195312 5.078125 C 14.335938 4.84375 14.355469 4.773438 14.355469 4.46875 C 14.355469 4.015625 14.324219 3.925781 14.140625 3.816406 C 13.949219 3.699219 13.675781 3.667969 13.332031 3.722656 M 15.097656 3.992188 C 15.023438 4.054688 14.992188 4.15625 14.976562 4.40625 C 14.964844 4.589844 14.96875 4.746094 14.988281 4.757812 C 15.007812 4.769531 15.105469 4.695312 15.210938 4.589844 C 15.3125 4.484375 15.457031 4.386719 15.53125 4.367188 C 15.699219 4.332031 16.027344 4.46875 16.355469 4.710938 C 16.484375 4.804688 16.605469 4.882812 16.621094 4.882812 C 16.636719 4.882812 16.648438 4.78125 16.648438 4.65625 C 16.648438 4.457031 16.628906 4.40625 16.464844 4.25 C 16.136719 3.9375 15.335938 3.785156 15.097656 3.992188 M 10.753906 4.183594 C 10.152344 4.394531 9.441406 5.449219 9.101562 6.632812 C 8.949219 7.171875 8.980469 7.265625 9.246094 7.0625 C 9.472656 6.890625 9.550781 6.777344 9.933594 6.019531 C 10.285156 5.335938 10.4375 5.144531 10.925781 4.773438 C 11.191406 4.570312 11.230469 4.519531 11.230469 4.378906 C 11.230469 4.097656 11.121094 4.054688 10.753906 4.183594 M 8.710938 4.902344 C 8.164062 5.074219 7.4375 5.675781 7.164062 6.1875 C 6.964844 6.554688 6.878906 7.015625 6.9375 7.382812 C 7 7.753906 7.128906 8.011719 7.390625 8.273438 C 7.714844 8.597656 8.546875 8.972656 8.546875 8.792969 C 8.546875 8.734375 8.355469 8.503906 7.953125 8.070312 C 7.769531 7.878906 7.585938 7.648438 7.542969 7.5625 C 7.429688 7.347656 7.464844 6.882812 7.617188 6.566406 C 7.777344 6.226562 8.296875 5.730469 8.734375 5.492188 C 8.929688 5.386719 9.132812 5.25 9.179688 5.1875 C 9.289062 5.050781 9.257812 4.902344 9.113281 4.863281 C 8.976562 4.828125 8.945312 4.828125 8.710938 4.902344 M 12.011719 5.105469 C 11.21875 5.316406 10.363281 6.003906 10.128906 6.613281 C 10.019531 6.898438 10.050781 7.273438 10.207031 7.589844 C 10.367188 7.90625 11.457031 9.171875 11.769531 9.402344 C 12.070312 9.621094 12.453125 9.699219 12.453125 9.539062 C 12.453125 9.484375 12.347656 9.3125 12.21875 9.152344 C 12.089844 8.992188 11.832031 8.664062 11.644531 8.425781 C 11.457031 8.183594 11.179688 7.855469 11.03125 7.691406 C 10.878906 7.53125 10.730469 7.347656 10.699219 7.289062 C 10.535156 6.976562 10.742188 6.550781 11.246094 6.171875 C 11.84375 5.722656 12.425781 5.539062 12.609375 5.75 C 12.824219 5.996094 12.75 6.199219 12.339844 6.460938 C 11.9375 6.722656 11.804688 6.890625 11.78125 7.167969 C 11.738281 7.585938 11.855469 7.800781 12.328125 8.175781 C 12.464844 8.285156 12.761719 8.550781 12.992188 8.769531 C 13.472656 9.226562 13.761719 9.371094 14.050781 9.296875 C 14.164062 9.269531 14.257812 9.207031 14.300781 9.125 C 14.367188 9.007812 14.367188 8.980469 14.292969 8.871094 C 14.238281 8.785156 14.148438 8.734375 14.027344 8.714844 C 13.683594 8.660156 13.542969 8.5625 13.300781 8.210938 C 13.054688 7.851562 12.921875 7.75 12.648438 7.691406 C 12.410156 7.640625 12.351562 7.582031 12.351562 7.394531 C 12.351562 7.261719 12.390625 7.199219 12.554688 7.070312 C 13.011719 6.703125 13.097656 6.617188 13.1875 6.441406 C 13.371094 6.078125 13.28125 5.511719 12.996094 5.257812 C 12.875 5.148438 12.570312 5.03125 12.402344 5.035156 C 12.335938 5.035156 12.160156 5.066406 12.011719 5.105469 M 17.550781 5.074219 C 17.394531 5.140625 17.320312 5.257812 17.371094 5.351562 C 17.425781 5.445312 18.3125 6.203125 18.371094 6.203125 C 18.46875 6.203125 18.386719 6.027344 18.1875 5.816406 C 18.066406 5.6875 17.96875 5.566406 17.96875 5.550781 C 17.96875 5.488281 18.222656 5.519531 18.390625 5.597656 C 18.613281 5.703125 18.734375 5.867188 18.832031 6.195312 C 18.945312 6.59375 19.058594 6.796875 19.355469 7.128906 C 19.675781 7.488281 19.808594 7.761719 19.871094 8.179688 C 19.953125 8.757812 19.808594 9.402344 19.488281 9.898438 C 19.25 10.265625 18.964844 10.507812 18.507812 10.734375 C 18.226562 10.867188 18.164062 10.914062 18.25 10.929688 C 18.738281 11 19.757812 10.277344 20.089844 9.625 C 20.628906 8.554688 20.527344 7.484375 19.8125 6.734375 C 19.644531 6.558594 19.527344 6.386719 19.488281 6.246094 C 19.328125 5.71875 19 5.359375 18.511719 5.171875 C 18.210938 5.058594 17.707031 5.003906 17.550781 5.074219 M 14.855469 5.316406 C 14.355469 5.488281 13.996094 5.898438 13.8125 6.503906 C 13.625 7.125 13.753906 7.683594 14.171875 8.035156 C 14.597656 8.394531 15.179688 8.507812 15.410156 8.277344 C 15.5 8.1875 15.523438 8.125 15.5 8.042969 C 15.433594 7.824219 15.3125 7.753906 14.917969 7.714844 C 14.421875 7.667969 14.328125 7.582031 14.335938 7.1875 C 14.34375 6.664062 14.636719 6.097656 14.988281 5.921875 C 15.40625 5.710938 15.914062 5.800781 16.757812 6.234375 C 17.539062 6.636719 18.0625 7.253906 18.144531 7.871094 C 18.191406 8.199219 18.101562 8.371094 17.777344 8.589844 C 17.421875 8.832031 17.082031 9.199219 16.921875 9.511719 C 16.65625 10.035156 16.785156 10.035156 17.578125 9.507812 C 18.582031 8.835938 18.824219 8.453125 18.703125 7.710938 C 18.566406 6.867188 17.871094 6.105469 16.734375 5.5625 C 16.007812 5.21875 15.378906 5.136719 14.855469 5.316406 M 8.429688 6.199219 C 8.246094 6.417969 8.179688 6.667969 8.179688 7.128906 C 8.179688 7.496094 8.195312 7.582031 8.335938 7.875 C 8.507812 8.242188 8.847656 8.707031 9.09375 8.914062 C 9.453125 9.21875 10.230469 9.4375 10.496094 9.3125 C 10.664062 9.230469 10.683594 9.035156 10.535156 8.863281 C 10.433594 8.746094 10.371094 8.726562 10.011719 8.6875 C 9.582031 8.644531 9.441406 8.582031 9.261719 8.339844 C 9.058594 8.066406 9.324219 7.957031 9.648438 8.179688 C 9.746094 8.246094 9.847656 8.300781 9.871094 8.300781 C 9.984375 8.300781 9.839844 7.996094 9.625 7.792969 C 9.484375 7.660156 9.464844 7.65625 9.164062 7.6875 C 8.882812 7.71875 8.839844 7.710938 8.800781 7.632812 C 8.710938 7.460938 8.6875 7.089844 8.738281 6.667969 C 8.769531 6.433594 8.78125 6.199219 8.761719 6.148438 C 8.71875 6.011719 8.570312 6.035156 8.429688 6.199219 M 15.167969 6.546875 C 14.96875 6.703125 15 6.933594 15.242188 7.0625 C 15.324219 7.101562 15.574219 7.167969 15.804688 7.207031 C 16.335938 7.300781 16.570312 7.394531 16.722656 7.578125 C 16.925781 7.816406 16.878906 8.03125 16.609375 8.105469 C 16.464844 8.140625 16.277344 8.3125 15.699219 8.9375 C 14.164062 10.585938 13.875 10.914062 13.925781 10.929688 C 13.953125 10.941406 14.269531 10.804688 14.628906 10.625 C 15.355469 10.265625 15.328125 10.285156 16.625 8.945312 L 17.441406 8.105469 L 17.421875 7.8125 C 17.382812 7.246094 17.003906 6.917969 16.042969 6.613281 C 15.421875 6.417969 15.339844 6.410156 15.167969 6.546875 M 19.101562 7.628906 C 19.078125 7.664062 19.042969 7.898438 19.023438 8.15625 C 18.925781 9.597656 18.546875 10.011719 17.1875 10.15625 C 16.777344 10.199219 16.664062 10.234375 16.226562 10.453125 C 15.953125 10.589844 15.71875 10.730469 15.703125 10.769531 C 15.691406 10.804688 15.710938 10.871094 15.753906 10.910156 C 15.871094 11.03125 16.277344 11.003906 16.769531 10.84375 C 17.011719 10.765625 17.398438 10.679688 17.625 10.65625 C 18.210938 10.59375 18.578125 10.421875 18.941406 10.03125 C 19.261719 9.6875 19.40625 9.371094 19.480469 8.847656 C 19.527344 8.515625 19.488281 8.054688 19.390625 7.804688 C 19.328125 7.640625 19.171875 7.542969 19.101562 7.628906 M 5.53125 9.15625 C 5.324219 9.304688 5.292969 9.730469 5.46875 10.058594 C 5.667969 10.433594 6.003906 10.695312 6.289062 10.695312 C 6.484375 10.695312 6.542969 10.585938 6.542969 10.214844 C 6.542969 9.558594 5.902344 8.890625 5.53125 9.15625 M 8.65625 9.230469 C 8.484375 9.300781 8.523438 9.328125 8.792969 9.328125 C 8.96875 9.328125 9.035156 9.308594 9.019531 9.265625 C 8.996094 9.1875 8.800781 9.167969 8.65625 9.230469 M 12.742188 10.101562 C 12.992188 10.59375 13.632812 10.816406 13.835938 10.484375 C 13.882812 10.410156 13.871094 10.375 13.78125 10.300781 C 13.636719 10.183594 12.929688 9.914062 12.769531 9.914062 L 12.644531 9.914062 L 12.742188 10.101562 M 7.375 10.261719 C 7.070312 10.382812 6.902344 10.652344 6.742188 11.277344 C 6.6875 11.503906 6.582031 11.777344 6.511719 11.882812 C 6.441406 11.988281 6.210938 12.40625 5.992188 12.8125 C 5.132812 14.429688 5.164062 14.359375 5.191406 14.59375 C 5.234375 14.992188 5.546875 15.179688 6.167969 15.183594 C 6.359375 15.183594 6.429688 15.210938 6.542969 15.324219 C 6.714844 15.496094 6.773438 15.769531 6.695312 16.050781 C 6.664062 16.167969 6.640625 16.324219 6.640625 16.40625 C 6.640625 16.527344 6.664062 16.554688 6.824219 16.597656 C 6.925781 16.625 7.046875 16.648438 7.097656 16.648438 C 7.144531 16.648438 7.367188 16.695312 7.585938 16.753906 C 7.96875 16.851562 8.199219 16.855469 8.554688 16.769531 C 8.65625 16.746094 8.695312 16.761719 8.738281 16.84375 C 8.824219 17.003906 8.761719 17.140625 8.503906 17.359375 C 8.160156 17.648438 7.785156 18.105469 7.808594 18.203125 C 7.820312 18.25 7.828125 18.570312 7.820312 18.921875 C 7.8125 19.636719 7.863281 19.796875 8.160156 19.949219 C 8.632812 20.195312 10.222656 19.738281 11.207031 19.078125 C 11.878906 18.625 12.367188 17.9375 12.609375 17.113281 C 12.707031 16.765625 12.71875 16.621094 12.71875 15.796875 C 12.714844 15.011719 12.699219 14.804688 12.609375 14.441406 C 12.476562 13.910156 12.25 13.402344 12.046875 13.191406 C 11.53125 12.644531 9.832031 11.625 9.15625 11.453125 C 8.746094 11.347656 8.375 11.355469 8.121094 11.476562 C 7.847656 11.609375 7.476562 12.019531 7.269531 12.421875 C 7.179688 12.597656 7.089844 12.742188 7.070312 12.742188 C 7.007812 12.746094 6.839844 12.207031 6.808594 11.902344 C 6.753906 11.363281 6.9375 10.9375 7.308594 10.75 C 7.46875 10.664062 7.800781 10.683594 8.207031 10.792969 C 8.816406 10.960938 9.652344 11.121094 10.472656 11.226562 C 10.902344 11.28125 11.367188 11.359375 11.5 11.402344 C 11.933594 11.535156 12.382812 11.945312 12.726562 12.53125 C 12.84375 12.730469 12.847656 12.761719 12.792969 12.988281 C 12.742188 13.199219 12.746094 13.253906 12.824219 13.410156 C 12.960938 13.6875 13.136719 13.792969 13.46875 13.792969 C 13.679688 13.789062 13.804688 13.757812 14.007812 13.648438 C 14.382812 13.441406 14.46875 13.316406 14.441406 13 C 14.417969 12.6875 14.449219 12.652344 14.917969 12.476562 C 15.398438 12.292969 15.453125 12.285156 15.589844 12.375 C 15.660156 12.421875 15.832031 12.46875 15.976562 12.484375 C 16.476562 12.535156 16.894531 12.324219 16.894531 12.015625 C 16.894531 11.746094 16.527344 11.773438 16.496094 12.046875 C 16.480469 12.164062 16.457031 12.183594 16.289062 12.199219 C 15.988281 12.222656 15.882812 12.175781 15.84375 12.007812 C 15.804688 11.832031 15.847656 11.828125 15.0625 12.058594 C 14.222656 12.304688 14.078125 12.414062 14.03125 12.835938 C 14.007812 13.023438 13.972656 13.113281 13.894531 13.160156 C 13.734375 13.265625 13.515625 13.292969 13.378906 13.21875 C 13.269531 13.164062 13.253906 13.113281 13.226562 12.804688 C 13.160156 12.070312 12.652344 11.339844 12 11.035156 C 11.675781 10.882812 11.011719 10.75 9.527344 10.546875 C 9.113281 10.492188 8.511719 10.390625 8.191406 10.324219 C 7.539062 10.191406 7.542969 10.191406 7.375 10.261719 M 6.085938 14.304688 C 5.789062 14.421875 5.660156 14.535156 5.699219 14.640625 C 5.75 14.777344 5.816406 14.792969 6.308594 14.792969 C 6.738281 14.792969 6.792969 14.804688 6.917969 14.914062 C 7.027344 15.007812 7.054688 15.066406 7.050781 15.230469 C 7.042969 15.421875 7.050781 15.429688 7.128906 15.355469 C 7.175781 15.3125 7.242188 15.179688 7.277344 15.058594 C 7.359375 14.765625 7.28125 14.5 7.070312 14.347656 C 6.851562 14.195312 6.40625 14.175781 6.085938 14.304688 "/>
</g>
</svg>
